# xmcd
#
# Track frame offsets: 
#        150
#        19462
#        40245
#        57070
#        76377
#        96257
#        115265
#        132032
#        154887
#        170220
#
# Disc length: 2610 seconds
#
# Revision: 3
# Processed by: cddbd v1.5.2PL0 Copyright (c) Steve Scherf et al.
# Submitted via: ExactAudioCopy v1.0b4
#
DISCID=820a300a
DTITLE=Climax Blues Band - Sample And Hold
DYEAR=1983
DGENRE=Blues Rock
TTITLE0=Friends In High Places
TTITLE1=Sign Of Time
TTITLE2=Walking On Sunset
TTITLE3=Shine
TTITLE4=Movie Queen
TTITLE5=Heaven And Hell
TTITLE6=Listen To The Night
TTITLE7=Doin' Alright
TTITLE8=I'm Ready
TTITLE9=The End Of The Seven Seas
EXTD=Virgin-30.04.1992 -(7 87929 2-538)
EXTT0=
EXTT1=
EXTT2=
EXTT3=
EXTT4=
EXTT5=
EXTT6=
EXTT7=
EXTT8=
EXTT9=
PLAYORDER=
